# xmcd
# 
# Track frame offsets:
#     150
#     17657
#     39931
#     58721
#     76949
#     92478
#     107033
#     126232
#     145205
# 
# Disc length: 2185
# 
# Revision: 1
# Processed by: cddbd v1.5.2PL0 Copyright (c) Steve Scherf et al.
# Submitted via: BonkEnc v1.0.8
# 
DISCID=6b088709
DTITLE=Horace Silver - That Healin' Feelin'
DYEAR=1970
DGENRE=Contemporary Jazz
TTITLE0=That Healin' Feelin'
TTITLE1=The Happy Medium
TTITLE2=The Show Has Begun
TTITLE3=Love Vibrations
TTITLE4=Peace
TTITLE5=Permit Me To Introduce You To Yourself
TTITLE6=Wipe Away The Evil
TTITLE7=Nobody Knows
TTITLE8=There's Much To Be Done
EXTD=YEAR: 1970
EXTT0=
EXTT1=
EXTT2=
EXTT3=
EXTT4=
EXTT5=
EXTT6=
EXTT7=
EXTT8=
PLAYORDER=
